<mxfile host="app.diagrams.net" modified="2024-08-16T07:39:29.934Z" agent="Mozilla/5.0 (Macintosh; Intel Mac OS X 10_15_7) AppleWebKit/537.36 (KHTML, like Gecko) Chrome/127.0.0.0 Safari/537.36" version="24.3.1" etag="6If0wxp4I2iEhyiA99kn" type="github">
  <diagram name="Page-1" id="VACH3OnEWLGz_VN-ZE1s">
    <mxGraphModel>
      <root>
        <mxCell id="0" />
        <mxCell id="1" parent="0" />
      </root>
    </mxGraphModel>
  </diagram>
</mxfile>
